<svg width="25" height="25" viewBox="0 0 25 25" fill="none" xmlns="http://www.w3.org/2000/svg">
<path d="M10.5 7.5C10.4998 8.89064 10.9138 10.2498 11.6892 11.4042C12.4646 12.5586 13.5663 13.4559 14.8538 13.9816C16.1412 14.5073 17.5561 14.6376 18.9179 14.3559C20.2797 14.0742 21.5268 13.3933 22.5 12.4V12.5C22.5 18.023 18.023 22.5 12.5 22.5C6.977 22.5 2.5 18.023 2.5 12.5C2.5 6.977 6.977 2.5 12.5 2.5H12.6C11.934 3.15113 11.4051 3.92896 11.0445 4.78768C10.6838 5.6464 10.4987 6.56862 10.5 7.5ZM4.5 12.5C4.49927 14.285 5.09553 16.0189 6.19389 17.426C7.29226 18.833 8.82963 19.8323 10.5614 20.2648C12.2932 20.6974 14.1199 20.5383 15.7508 19.813C17.3818 19.0876 18.7233 17.8377 19.562 16.262C18.0694 16.6136 16.5118 16.5781 15.0368 16.1587C13.5619 15.7394 12.2185 14.9501 11.1342 13.8658C10.0499 12.7815 9.26065 11.4381 8.84128 9.96318C8.42192 8.48821 8.38636 6.93056 8.738 5.438C7.45758 6.12014 6.38678 7.13766 5.64026 8.38164C4.89373 9.62562 4.49958 11.0492 4.5 12.5Z" fill="#220953"/>
</svg>
